<mxfile host="Electron" agent="Mozilla/5.0 (Macintosh; Intel Mac OS X 10_15_7) AppleWebKit/537.36 (KHTML, like Gecko) draw.io/26.0.16 Chrome/132.0.6834.196 Electron/34.2.0 Safari/537.36" version="26.0.16">
  <diagram name="Page-1" id="1aqzsGy1Q-rk6vU0fawc">
    <mxGraphModel dx="1184" dy="775" grid="0" gridSize="10" guides="1" tooltips="1" connect="1" arrows="1" fold="1" page="1" pageScale="1" pageWidth="1700" pageHeight="1100" math="0" shadow="0">
      <root>
        <mxCell id="0" />
        <mxCell id="1" parent="0" />
        <mxCell id="anPon1fcwDBpiif781Qs-2" value="" style="rounded=0;whiteSpace=wrap;html=1;fillColor=none;strokeColor=#B3B3B3;dashed=1;" parent="1" vertex="1">
          <mxGeometry x="270" y="235" width="580" height="595" as="geometry" />
        </mxCell>
        <mxCell id="anPon1fcwDBpiif781Qs-1" value="" style="rounded=0;whiteSpace=wrap;html=1;fillColor=none;strokeColor=#B3B3B3;dashed=1;" parent="1" vertex="1">
          <mxGeometry x="61" y="283.8" width="150" height="480" as="geometry" />
        </mxCell>
        <mxCell id="anPon1fcwDBpiif781Qs-5" value="" style="rounded=0;whiteSpace=wrap;html=1;fillColor=none;dashed=1;strokeColor=#B3B3B3;" parent="1" vertex="1">
          <mxGeometry x="870" y="258.78" width="180" height="480" as="geometry" />
        </mxCell>
        <mxCell id="anPon1fcwDBpiif781Qs-7" value="&lt;font style=&quot;font-size: 14px;&quot;&gt;Consume&amp;nbsp;&lt;/font&gt;" style="text;html=1;align=center;verticalAlign=middle;whiteSpace=wrap;rounded=0;fillColor=default;" parent="1" vertex="1">
          <mxGeometry x="940" y="238.78" width="60" height="30" as="geometry" />
        </mxCell>
        <mxCell id="anPon1fcwDBpiif781Qs-8" value="BRONZE LAYER" style="rounded=0;whiteSpace=wrap;html=1;labelBackgroundColor=light-dark(#e9c586, #ededed);fillColor=light-dark(#e9c586, #ededed);strokeColor=none;" parent="1" vertex="1">
          <mxGeometry x="330" y="253.78" width="120" height="40" as="geometry" />
        </mxCell>
        <mxCell id="anPon1fcwDBpiif781Qs-9" value="" style="rounded=0;whiteSpace=wrap;html=1;labelBackgroundColor=light-dark(#e9c586, #ededed);fillColor=none;strokeColor=#D79B00;" parent="1" vertex="1">
          <mxGeometry x="310" y="303.78" width="160" height="496.22" as="geometry" />
        </mxCell>
        <mxCell id="anPon1fcwDBpiif781Qs-10" value="Silver Layer" style="rounded=0;whiteSpace=wrap;html=1;labelBackgroundColor=light-dark(#f5f5f5, #ededed);fillColor=#f5f5f5;fontColor=#333333;strokeColor=none;" parent="1" vertex="1">
          <mxGeometry x="505" y="262.56" width="120" height="37.44" as="geometry" />
        </mxCell>
        <mxCell id="anPon1fcwDBpiif781Qs-12" value="Gold Layer" style="rounded=0;whiteSpace=wrap;html=1;labelBackgroundColor=light-dark(#e9d92b, #ededed);fillColor=light-dark(#e9d92b, #ededed);strokeColor=none;" parent="1" vertex="1">
          <mxGeometry x="690" y="253.77999999999997" width="120" height="40" as="geometry" />
        </mxCell>
        <mxCell id="anPon1fcwDBpiif781Qs-14" value="CRM" style="image;aspect=fixed;html=1;points=[];align=center;fontSize=12;image=img/lib/azure2/general/Folder_Blank.svg;" parent="1" vertex="1">
          <mxGeometry x="87" y="322.79999999999995" width="69" height="56.00000000000001" as="geometry" />
        </mxCell>
        <mxCell id="anPon1fcwDBpiif781Qs-15" value="" style="image;aspect=fixed;html=1;points=[];align=center;fontSize=12;image=img/lib/azure2/general/File.svg;" parent="1" vertex="1">
          <mxGeometry x="121" y="338.79999999999995" width="35" height="43.13" as="geometry" />
        </mxCell>
        <mxCell id="anPon1fcwDBpiif781Qs-16" value="ERP" style="image;aspect=fixed;html=1;points=[];align=center;fontSize=12;image=img/lib/azure2/general/Folder_Blank.svg;" parent="1" vertex="1">
          <mxGeometry x="91" y="473.79999999999995" width="69" height="56.00000000000001" as="geometry" />
        </mxCell>
        <mxCell id="anPon1fcwDBpiif781Qs-17" value="" style="image;aspect=fixed;html=1;points=[];align=center;fontSize=12;image=img/lib/azure2/general/File.svg;" parent="1" vertex="1">
          <mxGeometry x="125" y="489.79999999999995" width="35" height="43.13" as="geometry" />
        </mxCell>
        <mxCell id="anPon1fcwDBpiif781Qs-20" value="" style="shape=link;html=1;rounded=0;" parent="1" edge="1">
          <mxGeometry width="100" relative="1" as="geometry">
            <mxPoint x="86" y="595.02" as="sourcePoint" />
            <mxPoint x="186" y="595.02" as="targetPoint" />
          </mxGeometry>
        </mxCell>
        <mxCell id="anPon1fcwDBpiif781Qs-21" value="CSV FILES" style="text;html=1;align=center;verticalAlign=middle;whiteSpace=wrap;rounded=0;" parent="1" vertex="1">
          <mxGeometry x="137" y="630.02" width="74" height="30" as="geometry" />
        </mxCell>
        <mxCell id="anPon1fcwDBpiif781Qs-22" value="Filed in Folder" style="text;html=1;align=center;verticalAlign=middle;whiteSpace=wrap;rounded=0;" parent="1" vertex="1">
          <mxGeometry x="137" y="685.02" width="74" height="30" as="geometry" />
        </mxCell>
        <mxCell id="anPon1fcwDBpiif781Qs-23" value="&lt;b&gt;Object Type:&lt;/b&gt;" style="text;html=1;align=center;verticalAlign=middle;whiteSpace=wrap;rounded=0;" parent="1" vertex="1">
          <mxGeometry x="61" y="630.02" width="80" height="30" as="geometry" />
        </mxCell>
        <mxCell id="anPon1fcwDBpiif781Qs-24" value="&lt;b&gt;Interfaces&lt;/b&gt;" style="text;html=1;align=center;verticalAlign=middle;whiteSpace=wrap;rounded=0;" parent="1" vertex="1">
          <mxGeometry x="71" y="685.02" width="60" height="30" as="geometry" />
        </mxCell>
        <mxCell id="anPon1fcwDBpiif781Qs-25" value="" style="html=1;verticalLabelPosition=bottom;align=center;labelBackgroundColor=#ffffff;verticalAlign=top;strokeWidth=2;strokeColor=#d79b00;shadow=0;dashed=0;shape=mxgraph.ios7.icons.data;fillColor=#ffe6cc;" parent="1" vertex="1">
          <mxGeometry x="365" y="361.69" width="50" height="53.09" as="geometry" />
        </mxCell>
        <mxCell id="anPon1fcwDBpiif781Qs-28" value="" style="shape=flexArrow;endArrow=classic;html=1;rounded=0;fillColor=#dae8fc;strokeColor=#6c8ebf;width=14;endSize=7.33;" parent="1" edge="1">
          <mxGeometry width="50" height="50" relative="1" as="geometry">
            <mxPoint x="190" y="456.26" as="sourcePoint" />
            <mxPoint x="270" y="456.19" as="targetPoint" />
          </mxGeometry>
        </mxCell>
        <mxCell id="anPon1fcwDBpiif781Qs-30" value="" style="shape=flexArrow;endArrow=classic;html=1;rounded=0;fillColor=#dae8fc;strokeColor=#6c8ebf;width=14;endSize=7.33;" parent="1" edge="1">
          <mxGeometry width="50" height="50" relative="1" as="geometry">
            <mxPoint x="460" y="456.18999999999994" as="sourcePoint" />
            <mxPoint x="510" y="456.18999999999994" as="targetPoint" />
          </mxGeometry>
        </mxCell>
        <mxCell id="anPon1fcwDBpiif781Qs-31" value="" style="shape=flexArrow;endArrow=classic;html=1;rounded=0;fillColor=#dae8fc;strokeColor=#6c8ebf;width=14;endSize=7.33;" parent="1" edge="1">
          <mxGeometry width="50" height="50" relative="1" as="geometry">
            <mxPoint x="640" y="456.18999999999994" as="sourcePoint" />
            <mxPoint x="690" y="456.18999999999994" as="targetPoint" />
          </mxGeometry>
        </mxCell>
        <mxCell id="anPon1fcwDBpiif781Qs-32" value="" style="shape=flexArrow;endArrow=classic;html=1;rounded=0;fillColor=#dae8fc;strokeColor=#6c8ebf;width=14;endSize=7.33;entryX=0.006;entryY=0.417;entryDx=0;entryDy=0;entryPerimeter=0;" parent="1" edge="1">
          <mxGeometry width="50" height="50" relative="1" as="geometry">
            <mxPoint x="840" y="456.19" as="sourcePoint" />
            <mxPoint x="921.0799999999999" y="456.3500000000001" as="targetPoint" />
            <Array as="points" />
          </mxGeometry>
        </mxCell>
        <mxCell id="anPon1fcwDBpiif781Qs-33" value="Raw Data" style="text;html=1;align=center;verticalAlign=middle;whiteSpace=wrap;rounded=0;" parent="1" vertex="1">
          <mxGeometry x="360" y="414.78" width="60" height="30" as="geometry" />
        </mxCell>
        <mxCell id="anPon1fcwDBpiif781Qs-36" value="" style="shape=link;html=1;rounded=0;" parent="1" edge="1">
          <mxGeometry width="100" relative="1" as="geometry">
            <mxPoint x="340" y="456.18999999999994" as="sourcePoint" />
            <mxPoint x="440" y="456.18999999999994" as="targetPoint" />
            <Array as="points">
              <mxPoint x="390" y="456.28" />
            </Array>
          </mxGeometry>
        </mxCell>
        <mxCell id="anPon1fcwDBpiif781Qs-40" value="&lt;b&gt;Object Type&lt;/b&gt;: Tables" style="text;html=1;align=center;verticalAlign=middle;whiteSpace=wrap;rounded=0;" parent="1" vertex="1">
          <mxGeometry x="330" y="476.90999999999997" width="120" height="30" as="geometry" />
        </mxCell>
        <mxCell id="anPon1fcwDBpiif781Qs-3" value="&lt;font style=&quot;font-size: 14px;&quot;&gt;DATA WAREHOUSE&amp;nbsp;&lt;/font&gt;" style="text;html=1;align=center;verticalAlign=middle;whiteSpace=wrap;rounded=0;fillColor=default;" parent="1" vertex="1">
          <mxGeometry x="525" y="217" width="90" height="30" as="geometry" />
        </mxCell>
        <mxCell id="anPon1fcwDBpiif781Qs-4" value="&lt;font style=&quot;font-size: 14px;&quot;&gt;Sources&lt;/font&gt;" style="text;html=1;align=center;verticalAlign=middle;whiteSpace=wrap;rounded=0;fillColor=default;" parent="1" vertex="1">
          <mxGeometry x="106" y="265.02" width="60" height="30" as="geometry" />
        </mxCell>
        <mxCell id="PbfPi6SbnKLFt1KjEive-3" value="" style="image;aspect=fixed;html=1;points=[];align=center;fontSize=12;image=img/lib/azure2/analytics/Power_BI_Embedded.svg;" vertex="1" parent="1">
          <mxGeometry x="920" y="328.78" width="51" height="68" as="geometry" />
        </mxCell>
        <mxCell id="PbfPi6SbnKLFt1KjEive-4" value="" style="sketch=0;html=1;aspect=fixed;strokeColor=none;shadow=0;fillColor=#3B8DF1;verticalAlign=top;labelPosition=center;verticalLabelPosition=bottom;shape=mxgraph.gcp2.big_query" vertex="1" parent="1">
          <mxGeometry x="930.3" y="438.78" width="59.4" height="60" as="geometry" />
        </mxCell>
        <mxCell id="PbfPi6SbnKLFt1KjEive-6" value="" style="shape=mxgraph.signs.healthcare.brain;html=1;pointerEvents=1;fillColor=#dae8fc;strokeColor=#6c8ebf;verticalLabelPosition=bottom;verticalAlign=top;align=center;" vertex="1" parent="1">
          <mxGeometry x="929.7" y="558.7800000000001" width="60" height="60" as="geometry" />
        </mxCell>
        <mxCell id="PbfPi6SbnKLFt1KjEive-7" value="&lt;b&gt;Load:&lt;/b&gt;&lt;div&gt;&lt;ul&gt;&lt;li&gt;Batch Processing&amp;nbsp;&lt;/li&gt;&lt;li&gt;Full Load&lt;/li&gt;&lt;li&gt;Truncate and Insert&lt;/li&gt;&lt;/ul&gt;&lt;/div&gt;" style="text;html=1;align=left;verticalAlign=middle;whiteSpace=wrap;rounded=0;" vertex="1" parent="1">
          <mxGeometry x="330" y="516.91" width="120" height="90" as="geometry" />
        </mxCell>
        <mxCell id="PbfPi6SbnKLFt1KjEive-9" value="No&lt;b&gt; Transformations&lt;/b&gt;" style="text;html=1;align=center;verticalAlign=middle;whiteSpace=wrap;rounded=0;" vertex="1" parent="1">
          <mxGeometry x="330" y="620" width="120" height="30" as="geometry" />
        </mxCell>
        <mxCell id="PbfPi6SbnKLFt1KjEive-10" value="&lt;b&gt;Data Model:&lt;/b&gt; None (as-is)" style="text;html=1;align=center;verticalAlign=middle;whiteSpace=wrap;rounded=0;" vertex="1" parent="1">
          <mxGeometry x="330" y="658.78" width="120" height="30" as="geometry" />
        </mxCell>
        <mxCell id="PbfPi6SbnKLFt1KjEive-11" value="" style="rounded=0;whiteSpace=wrap;html=1;labelBackgroundColor=light-dark(#e9c586, #ededed);fillColor=none;strokeColor=#B3B3B3;" vertex="1" parent="1">
          <mxGeometry x="490" y="303.78" width="160" height="496.22" as="geometry" />
        </mxCell>
        <mxCell id="PbfPi6SbnKLFt1KjEive-12" value="" style="rounded=0;whiteSpace=wrap;html=1;labelBackgroundColor=light-dark(#e9c586, #ededed);fillColor=none;strokeColor=#FFD966;" vertex="1" parent="1">
          <mxGeometry x="670" y="303.78" width="160" height="496.22" as="geometry" />
        </mxCell>
        <mxCell id="PbfPi6SbnKLFt1KjEive-13" value="" style="html=1;verticalLabelPosition=bottom;align=center;labelBackgroundColor=#ffffff;verticalAlign=top;strokeWidth=2;strokeColor=#666666;shadow=0;dashed=0;shape=mxgraph.ios7.icons.data;fillColor=light-dark(#e9d92b, #1a1a1a);fontColor=#333333;" vertex="1" parent="1">
          <mxGeometry x="731.25" y="353.13" width="47.5" height="50" as="geometry" />
        </mxCell>
        <mxCell id="PbfPi6SbnKLFt1KjEive-14" value="Business-Ready Data" style="text;html=1;align=center;verticalAlign=middle;whiteSpace=wrap;rounded=0;" vertex="1" parent="1">
          <mxGeometry x="700" y="414.78000000000003" width="110" height="30" as="geometry" />
        </mxCell>
        <mxCell id="PbfPi6SbnKLFt1KjEive-15" value="" style="shape=link;html=1;rounded=0;" edge="1" parent="1">
          <mxGeometry width="100" relative="1" as="geometry">
            <mxPoint x="707.5" y="456.90999999999997" as="sourcePoint" />
            <mxPoint x="807.5" y="456.90999999999997" as="targetPoint" />
          </mxGeometry>
        </mxCell>
        <mxCell id="PbfPi6SbnKLFt1KjEive-16" value="&lt;b&gt;Object Type&lt;/b&gt;:&amp;nbsp; Views" style="text;html=1;align=center;verticalAlign=middle;whiteSpace=wrap;rounded=0;" vertex="1" parent="1">
          <mxGeometry x="695" y="469.40999999999997" width="120" height="30" as="geometry" />
        </mxCell>
        <mxCell id="PbfPi6SbnKLFt1KjEive-17" value="No&lt;b&gt; Load&lt;/b&gt;" style="text;html=1;align=left;verticalAlign=middle;whiteSpace=wrap;rounded=0;" vertex="1" parent="1">
          <mxGeometry x="690" y="469.40999999999997" width="120" height="90" as="geometry" />
        </mxCell>
        <mxCell id="PbfPi6SbnKLFt1KjEive-18" value="" style="html=1;verticalLabelPosition=bottom;align=center;labelBackgroundColor=#ffffff;verticalAlign=top;strokeWidth=2;strokeColor=#666666;shadow=0;dashed=0;shape=mxgraph.ios7.icons.data;fillColor=#f5f5f5;fontColor=#333333;" vertex="1" parent="1">
          <mxGeometry x="542.5" y="360" width="45" height="46.91" as="geometry" />
        </mxCell>
        <mxCell id="PbfPi6SbnKLFt1KjEive-19" value="Cleaned, Standardized DAta" style="text;html=1;align=center;verticalAlign=middle;whiteSpace=wrap;rounded=0;" vertex="1" parent="1">
          <mxGeometry x="520" y="414.78" width="110" height="30" as="geometry" />
        </mxCell>
        <mxCell id="PbfPi6SbnKLFt1KjEive-20" value="" style="shape=link;html=1;rounded=0;" edge="1" parent="1">
          <mxGeometry width="100" relative="1" as="geometry">
            <mxPoint x="525" y="453.78" as="sourcePoint" />
            <mxPoint x="625" y="453.78" as="targetPoint" />
          </mxGeometry>
        </mxCell>
        <mxCell id="PbfPi6SbnKLFt1KjEive-21" value="&lt;b&gt;Load:&lt;/b&gt;&lt;div&gt;&lt;ul&gt;&lt;li&gt;Batch Processing&lt;/li&gt;&lt;li&gt;Full Load&lt;/li&gt;&lt;li&gt;Truncate and Insert&lt;/li&gt;&lt;/ul&gt;&lt;/div&gt;" style="text;html=1;align=left;verticalAlign=middle;whiteSpace=wrap;rounded=0;" vertex="1" parent="1">
          <mxGeometry x="495" y="518.78" width="120" height="90" as="geometry" />
        </mxCell>
        <mxCell id="PbfPi6SbnKLFt1KjEive-22" value="&lt;b&gt;Object Type&lt;/b&gt;: Tables" style="text;html=1;align=center;verticalAlign=middle;whiteSpace=wrap;rounded=0;" vertex="1" parent="1">
          <mxGeometry x="505" y="473.78" width="120" height="30" as="geometry" />
        </mxCell>
        <mxCell id="PbfPi6SbnKLFt1KjEive-23" value="&lt;div style=&quot;text-align: left;&quot;&gt;&lt;b style=&quot;background-color: transparent; color: light-dark(rgb(0, 0, 0), rgb(255, 255, 255));&quot;&gt;Transformations&lt;/b&gt;&lt;/div&gt;&lt;div style=&quot;text-align: left;&quot;&gt;&lt;ul&gt;&lt;li&gt;Data Cleanising&lt;/li&gt;&lt;li&gt;Data Standardization&lt;/li&gt;&lt;li&gt;Data Normalization&lt;/li&gt;&lt;li&gt;Derived Columns&lt;/li&gt;&lt;li&gt;Data Enrichment&lt;/li&gt;&lt;/ul&gt;&lt;/div&gt;" style="text;html=1;align=center;verticalAlign=middle;whiteSpace=wrap;rounded=0;" vertex="1" parent="1">
          <mxGeometry x="490" y="668.78" width="160" height="30" as="geometry" />
        </mxCell>
        <mxCell id="PbfPi6SbnKLFt1KjEive-25" value="&lt;b&gt;Data Model: &lt;/b&gt;None (as-is)" style="text;html=1;align=center;verticalAlign=middle;whiteSpace=wrap;rounded=0;" vertex="1" parent="1">
          <mxGeometry x="505" y="740" width="120" height="30" as="geometry" />
        </mxCell>
        <mxCell id="PbfPi6SbnKLFt1KjEive-26" value="&lt;div style=&quot;text-align: left;&quot;&gt;&lt;b style=&quot;background-color: transparent; color: light-dark(rgb(0, 0, 0), rgb(255, 255, 255));&quot;&gt;Transformations&lt;/b&gt;&lt;/div&gt;&lt;div style=&quot;text-align: left;&quot;&gt;&lt;ul&gt;&lt;li&gt;Data Integrations&lt;/li&gt;&lt;li&gt;Aggregations&lt;/li&gt;&lt;li&gt;Data Normalization&lt;/li&gt;&lt;li&gt;Business Logics&lt;/li&gt;&lt;/ul&gt;&lt;/div&gt;" style="text;html=1;align=center;verticalAlign=middle;whiteSpace=wrap;rounded=0;" vertex="1" parent="1">
          <mxGeometry x="677.5" y="570" width="160" height="30" as="geometry" />
        </mxCell>
        <mxCell id="PbfPi6SbnKLFt1KjEive-28" value="&lt;div style=&quot;text-align: left;&quot;&gt;&lt;b style=&quot;background-color: transparent; color: light-dark(rgb(0, 0, 0), rgb(255, 255, 255));&quot;&gt;Data Model:&lt;/b&gt;&lt;/div&gt;&lt;div style=&quot;text-align: left;&quot;&gt;&lt;ul&gt;&lt;li&gt;Star Schema&lt;/li&gt;&lt;li&gt;FlatTable&lt;/li&gt;&lt;li&gt;Aggregated Table&lt;/li&gt;&lt;/ul&gt;&lt;/div&gt;" style="text;html=1;align=center;verticalAlign=middle;whiteSpace=wrap;rounded=0;" vertex="1" parent="1">
          <mxGeometry x="677.5" y="670" width="160" height="30" as="geometry" />
        </mxCell>
        <mxCell id="PbfPi6SbnKLFt1KjEive-30" value="Text" style="text;html=1;align=center;verticalAlign=middle;whiteSpace=wrap;rounded=0;" vertex="1" parent="1">
          <mxGeometry x="530" y="460" width="60" height="30" as="geometry" />
        </mxCell>
        <mxCell id="PbfPi6SbnKLFt1KjEive-31" value="BI &amp;amp; Reporting" style="text;html=1;align=center;verticalAlign=middle;whiteSpace=wrap;rounded=0;" vertex="1" parent="1">
          <mxGeometry x="920" y="396.78" width="60" height="30" as="geometry" />
        </mxCell>
        <mxCell id="PbfPi6SbnKLFt1KjEive-32" value="Ad-Hoc SQL Queries" style="text;html=1;align=center;verticalAlign=middle;whiteSpace=wrap;rounded=0;" vertex="1" parent="1">
          <mxGeometry x="929.7" y="503.78" width="60" height="30" as="geometry" />
        </mxCell>
        <mxCell id="PbfPi6SbnKLFt1KjEive-33" value="Machine Learning" style="text;html=1;align=center;verticalAlign=middle;whiteSpace=wrap;rounded=0;" vertex="1" parent="1">
          <mxGeometry x="940" y="636.91" width="60" height="30" as="geometry" />
        </mxCell>
        <mxCell id="PbfPi6SbnKLFt1KjEive-35" value="&lt;span style=&quot;font-size: 10px;&quot;&gt;Stored Procedure&lt;/span&gt;" style="text;html=1;align=center;verticalAlign=middle;whiteSpace=wrap;rounded=0;" vertex="1" parent="1">
          <mxGeometry x="322.5" y="293.78" width="135" height="30" as="geometry" />
        </mxCell>
        <mxCell id="PbfPi6SbnKLFt1KjEive-37" value="&lt;span style=&quot;font-size: 10px;&quot;&gt;Stored Procedure&lt;/span&gt;" style="text;html=1;align=center;verticalAlign=middle;whiteSpace=wrap;rounded=0;" vertex="1" parent="1">
          <mxGeometry x="497.5" y="293.78" width="135" height="30" as="geometry" />
        </mxCell>
        <mxCell id="PbfPi6SbnKLFt1KjEive-40" style="edgeStyle=orthogonalEdgeStyle;rounded=0;orthogonalLoop=1;jettySize=auto;html=1;entryX=0.48;entryY=0.085;entryDx=0;entryDy=0;entryPerimeter=0;" edge="1" parent="1" source="PbfPi6SbnKLFt1KjEive-35" target="anPon1fcwDBpiif781Qs-25">
          <mxGeometry relative="1" as="geometry" />
        </mxCell>
        <mxCell id="PbfPi6SbnKLFt1KjEive-41" style="edgeStyle=orthogonalEdgeStyle;rounded=0;orthogonalLoop=1;jettySize=auto;html=1;entryX=0.5;entryY=0.213;entryDx=0;entryDy=0;entryPerimeter=0;" edge="1" parent="1" source="PbfPi6SbnKLFt1KjEive-37" target="PbfPi6SbnKLFt1KjEive-18">
          <mxGeometry relative="1" as="geometry" />
        </mxCell>
      </root>
    </mxGraphModel>
  </diagram>
</mxfile>
